<svg width="801" height="801" viewBox="0 0 801 801" fill="none" xmlns="http://www.w3.org/2000/svg">
<path d="M341.566 23.7294C374.926 -7.06279 426.344 -7.06279 459.705 23.7294C480.749 43.1529 509.996 50.9898 537.932 44.6903C582.219 34.7038 626.749 60.413 640.244 103.76C648.757 131.103 670.167 152.514 697.51 161.026C740.857 174.521 766.567 219.051 756.58 263.338C750.281 291.274 758.118 320.522 777.541 341.566C808.333 374.926 808.333 426.344 777.541 459.705C758.118 480.749 750.281 509.996 756.58 537.932C766.567 582.219 740.857 626.749 697.51 640.244C670.167 648.757 648.757 670.167 640.244 697.51C626.749 740.857 582.219 766.567 537.932 756.58C509.996 750.281 480.749 758.118 459.705 777.541C426.344 808.333 374.926 808.333 341.566 777.541C320.522 758.118 291.274 750.281 263.338 756.58C219.051 766.567 174.521 740.857 161.026 697.51C152.514 670.167 131.103 648.757 103.76 640.244C60.413 626.749 34.7038 582.219 44.6903 537.932C50.9898 509.996 43.1529 480.749 23.7294 459.705C-7.06279 426.344 -7.06279 374.926 23.7294 341.566C43.1529 320.522 50.9898 291.274 44.6903 263.338C34.7038 219.051 60.413 174.521 103.76 161.026C131.103 152.514 152.514 131.103 161.026 103.76C174.521 60.413 219.051 34.7038 263.338 44.6903C291.274 50.9898 320.522 43.1529 341.566 23.7294Z" fill="currentColor"/>
</svg>
