<svg width="46" height="18" viewBox="0 0 46 18" fill="none" xmlns="http://www.w3.org/2000/svg">
<path fill-rule="evenodd" clip-rule="evenodd" d="M9.83792 0H13.1172V4.90912C13.1216 4.9091 13.126 4.90909 13.1304 4.90909H16.4097C17.5685 4.90909 18.7041 5.21546 19.7021 5.79359V4.90909H22.9814V5.786C23.9699 5.21644 25.0994 4.90909 26.2607 4.90909C27.4271 4.90909 28.5614 5.21916 29.5531 5.79357V4.90909H32.8324V5.7936C33.4537 5.43373 34.1333 5.17622 34.8453 5.03486C36.1176 4.7823 37.4363 4.91193 38.6347 5.40734C38.9049 5.51903 39.1663 5.64819 39.4173 5.79359V0H42.6966V11.4545C42.6966 11.8843 42.7814 12.3099 42.9462 12.707C43.111 13.104 43.3526 13.4648 43.6571 13.7687C43.9616 14.0726 44.3231 14.3137 44.721 14.4781C45.1188 14.6426 45.5453 14.7273 45.9759 14.7273V18L36.1249 18C34.966 18 33.8304 17.6936 32.8324 17.1155V18H29.54V11.4545C29.54 10.5866 29.1945 9.75413 28.5795 9.14038C27.9645 8.52662 27.1304 8.18182 26.2607 8.18182C25.391 8.18182 24.5569 8.52662 23.9419 9.14038C23.3269 9.75413 22.9814 10.5866 22.9814 11.4545V18H19.689V17.1231C19.0713 17.479 18.3962 17.7339 17.6892 17.8742C16.4169 18.1268 15.0982 17.9972 13.8998 17.5018C13.6296 17.3901 13.3682 17.2609 13.1172 17.1155V18H9.83792V17.1243C8.87324 17.6813 7.75323 18 6.55862 18C2.93639 18 0 15.0695 0 11.4545C0 7.83959 2.93639 4.90909 6.55862 4.90909C7.75323 4.90909 8.87324 5.22783 9.83792 5.78475V0ZM13.1172 9.81818H19.2496C18.9991 9.38508 18.6514 9.01332 18.2315 8.73337C17.6923 8.37376 17.0582 8.18182 16.4097 8.18182H13.1172V9.81818ZM6.55862 8.18182C8.36973 8.18182 9.83792 9.64707 9.83792 11.4545C9.83792 13.262 8.36973 14.7273 6.55862 14.7273C4.7475 14.7273 3.27931 13.262 3.27931 11.4545C3.27931 9.64707 4.7475 8.18182 6.55862 8.18182ZM39.9165 13.9594C40.0263 14.2239 40.1531 14.4804 40.296 14.7273L36.1249 14.7273C35.4763 14.7273 34.8423 14.5353 34.303 14.1757C33.8832 13.8958 33.5354 13.524 33.2849 13.0909H39.6255C39.7019 13.3862 39.7991 13.6764 39.9165 13.9594ZM38.9648 9.81818C38.6045 9.27998 37.979 8.67865 37.3798 8.43094C36.7806 8.18324 36.1212 8.11843 35.4851 8.2447C34.849 8.37098 34.2647 8.68268 33.806 9.14038C33.6023 9.34371 33.4274 9.5718 33.2849 9.81818H38.9648ZM32.8324 0H29.5531V3.27273H32.8324V0ZM18.7285 13.7687C18.9322 13.5654 19.1071 13.3373 19.2496 13.0909H13.5697C13.93 13.6291 14.5555 14.2304 15.1547 14.4781C15.7539 14.7259 16.4133 14.7907 17.0494 14.6644C17.6855 14.5381 18.2699 14.2264 18.7285 13.7687Z" fill="currentColor"/>
</svg>
